<svg width="120" height="82" viewBox="0 0 120 82" fill="none" xmlns="http://www.w3.org/2000/svg">
<path d="M10.682 45.7039H1.99677C1.36726 45.7039 0.845947 45.1877 0.845947 44.5424V35.5184C0.845947 34.8831 1.35742 34.3569 1.99677 34.3569H31.8099C32.4394 34.3569 32.9607 34.8732 32.9607 35.5184V44.5424C32.9607 45.1777 32.4492 45.7039 31.8099 45.7039H23.1246C22.4951 45.7039 21.9738 46.2201 21.9738 46.8654V79.9135C21.9738 80.5489 21.4623 81.075 20.823 81.075H12.9738C12.3443 81.075 11.823 80.5588 11.823 79.9135V46.8654C11.823 46.23 11.3115 45.7039 10.6722 45.7039H10.682Z" fill="black"/>
<path d="M37.3964 35.5184C37.3964 34.8831 37.9079 34.3569 38.5472 34.3569H53.0849C55.3865 34.3569 57.4816 34.7242 59.3603 35.4589C61.239 36.1935 62.8423 37.2557 64.1702 38.6654C65.498 40.0652 66.5111 41.7925 67.2292 43.8376C67.9472 45.8826 68.3013 48.1957 68.3013 50.7768V50.9058C68.3013 53.6656 67.9079 56.0879 67.121 58.1826C66.3341 60.2772 65.2423 62.0344 63.8554 63.454C62.4587 64.8736 60.7964 65.9457 58.8587 66.6605C56.921 67.3753 54.8259 67.7327 52.5538 67.7327H48.6783C48.0488 67.7327 47.5275 68.2489 47.5275 68.8942V79.9234C47.5275 80.5588 47.0161 81.0849 46.3767 81.0849H38.5275C37.898 81.0849 37.3767 80.5687 37.3767 79.9234V35.5284L37.3964 35.5184ZM52.3472 57.577C54.157 57.577 55.5833 57.031 56.6062 55.9291C57.6292 54.837 58.1505 53.3479 58.1505 51.4717V51.3327C58.1505 49.3174 57.639 47.7886 56.6062 46.7363C55.5734 45.684 54.1374 45.1579 52.2882 45.1579H48.6783C48.0488 45.1579 47.5275 45.6741 47.5275 46.3194V56.4155C47.5275 57.0508 48.039 57.577 48.6783 57.577H52.3472Z" fill="black"/>
<path d="M78.9447 81.1645C75.807 80.2016 73.0234 78.6628 70.5841 76.5483C68.3611 74.6224 66.5611 72.2696 65.1841 69.48C64.948 69.0035 65.0857 68.4178 65.489 68.0803L71.6366 62.9578C72.1677 62.511 72.9841 62.6302 73.3382 63.2357C75.6792 67.2166 78.7087 69.7878 82.4267 70.9294C83.7251 71.3265 84.7972 71.3662 85.6431 71.0485C86.489 70.7309 87.0595 70.0757 87.3546 69.1028L87.3939 68.9737C87.5316 68.5071 87.5808 68.0703 87.5218 67.6534C87.4628 67.2364 87.2661 66.7996 86.912 66.3132C86.5677 65.8367 86.0661 65.3205 85.407 64.7745C84.7579 64.2285 83.8825 63.5931 82.7808 62.8883C81.0792 61.7565 79.5251 60.6248 78.1284 59.4733C76.7316 58.3217 75.5906 57.0411 74.7251 55.6413C73.8595 54.2416 73.3185 52.6532 73.1021 50.896C72.8857 49.1389 73.1316 47.1038 73.8202 44.8205L73.8595 44.6914C74.489 42.6067 75.3743 40.79 76.5152 39.2413C77.6562 37.6927 79.0136 36.4617 80.5874 35.5484C82.1611 34.635 83.8825 34.089 85.7611 33.9004C87.6398 33.7118 89.6267 33.9401 91.7316 34.5854C94.7316 35.5087 97.2595 36.8389 99.3054 38.5663C101.135 40.1149 102.679 42.0011 103.919 44.2149C104.174 44.6716 104.076 45.2474 103.702 45.6147L97.83 51.3031C97.3284 51.7895 96.5021 51.7101 96.0988 51.1343C95.1251 49.6948 94.0529 48.4738 92.8923 47.4711C91.4366 46.2103 89.9218 45.3367 88.3579 44.8503C87.1874 44.4929 86.2333 44.4929 85.4857 44.8701C84.7382 45.2474 84.2365 45.8331 83.9906 46.6372L83.9513 46.7663C83.7939 47.2726 83.7546 47.7491 83.8234 48.1859C83.8923 48.6227 84.0988 49.0694 84.4529 49.5261C84.807 49.9827 85.3283 50.489 86.0169 51.0549C86.7054 51.6108 87.6005 52.2462 88.6923 52.9609C90.5218 54.1323 92.1349 55.3336 93.5316 56.5745C94.9185 57.8154 96.0202 59.1457 96.8365 60.5553C97.6529 61.965 98.1251 63.5137 98.2726 65.2113C98.4202 66.9088 98.1743 68.795 97.5447 70.8698L97.5054 70.9989C96.807 73.2921 95.8529 75.228 94.6333 76.7965C93.4136 78.365 91.9874 79.596 90.3841 80.4696C88.771 81.3432 87.0005 81.8396 85.0628 81.9686C83.1349 82.0977 81.0988 81.8296 78.9644 81.1645H78.9447Z" fill="black"/>
<path d="M108.029 34.3672H115.937C116.567 34.3672 117.088 34.8834 117.088 35.5287V79.9238C117.088 80.5591 116.577 81.0853 115.937 81.0853H108.029C107.4 81.0853 106.878 80.569 106.878 79.9238V35.5287C106.878 34.8933 107.39 34.3672 108.029 34.3672Z" fill="black"/>
<path d="M31.9574 29.6617C32.5869 29.6617 33.1082 30.1779 33.1082 30.8232V39.8471C33.1082 40.4825 32.5967 41.0086 31.9574 41.0086H23.2721C22.6426 41.0086 22.1213 41.5249 22.1213 42.1701V75.2183C22.1213 75.8536 21.6098 76.3798 20.9705 76.3798H13.1213C12.4918 76.3798 11.9705 75.8635 11.9705 75.2183V42.1701C11.9705 41.5348 11.459 41.0086 10.8197 41.0086H2.13443C1.50492 41.0086 0.983606 40.4924 0.983606 39.8471V30.8232C0.983606 30.1878 1.49508 29.6617 2.13443 29.6617H31.9475M31.9475 28.6689H2.13443C0.963934 28.6689 0 29.6319 0 30.8232V39.8471C0 41.0285 0.954098 42.0014 2.13443 42.0014H10.8197C10.9082 42.0014 10.9869 42.0709 10.9869 42.1701V75.2183C10.9869 76.3996 11.941 77.3725 13.1213 77.3725H20.9705C22.141 77.3725 23.1049 76.4095 23.1049 75.2183V42.1701C23.1049 42.0808 23.1738 42.0014 23.2721 42.0014H31.9574C33.1279 42.0014 34.0918 41.0384 34.0918 39.8471V30.8232C34.0918 29.6418 33.1377 28.6689 31.9574 28.6689H31.9475Z" fill="#FFE176"/>
<path d="M53.2428 29.6615C55.5445 29.6615 57.6395 30.0288 59.5182 30.7635C61.3969 31.4981 63.0002 32.5603 64.3281 33.97C65.6559 35.3697 66.6691 37.0971 67.3871 39.1421C68.1051 41.1872 68.4592 43.5002 68.4592 46.0813V46.2104C68.4592 48.9702 68.0658 51.3925 67.2789 53.4871C66.492 55.5818 65.4002 57.339 64.0133 58.7586C62.6166 60.1782 60.9543 61.2503 59.0166 61.9651C57.0789 62.6799 54.9838 63.0372 52.7117 63.0372H48.8363C48.2068 63.0372 47.6855 63.5535 47.6855 64.1988V75.228C47.6855 75.8634 47.174 76.3895 46.5346 76.3895H38.6854C38.0559 76.3895 37.5346 75.8733 37.5346 75.228V30.8329C37.5346 30.1976 38.0461 29.6714 38.6854 29.6714H53.2232M48.8264 52.8915H52.4953C54.3051 52.8915 55.7314 52.3455 56.7543 51.2436C57.7773 50.1516 58.2986 48.6625 58.2986 46.7862V46.6472C58.2986 44.632 57.7871 43.1031 56.7543 42.0508C55.7215 40.9985 54.2855 40.4724 52.4363 40.4724H48.8264C48.1969 40.4724 47.6756 40.9886 47.6756 41.6339V51.73C47.6756 52.3654 48.1871 52.8915 48.8264 52.8915ZM53.2232 28.6787H38.6854C37.515 28.6787 36.551 29.6417 36.551 30.8329V75.228C36.551 76.4094 37.5051 77.3823 38.6854 77.3823H46.5346C47.7051 77.3823 48.6691 76.4193 48.6691 75.228V64.1988C48.6691 64.1094 48.7379 64.03 48.8363 64.03H52.7117C55.0822 64.03 57.315 63.6527 59.351 62.8983C61.4166 62.1438 63.2166 60.9823 64.7117 59.4634C66.1969 57.9445 67.3674 56.0583 68.2035 53.8445C69.0297 51.6506 69.4428 49.0893 69.4428 46.2203V46.0913C69.4428 43.4109 69.0592 40.9688 68.3117 38.8245C67.5543 36.6504 66.4527 34.794 65.0363 33.2949C63.6199 31.7959 61.8789 30.6344 59.8723 29.8501C57.8854 29.0758 55.6527 28.6787 53.2428 28.6787H53.2232ZM48.8264 51.8988C48.7379 51.8988 48.6592 51.8293 48.6592 51.73V41.6339C48.6592 41.5445 48.7281 41.4651 48.8264 41.4651H52.4363C54.0199 41.4651 55.21 41.8821 56.0461 42.7458C56.8822 43.5995 57.3051 44.9099 57.3051 46.6472V46.7862C57.3051 48.4143 56.892 49.6552 56.0363 50.5685C55.1904 51.462 54.0297 51.8988 52.4854 51.8988H48.8166H48.8264Z" fill="#FFE176"/>
<path d="M116.095 29.6617C116.725 29.6617 117.246 30.1779 117.246 30.8232V75.2183C117.246 75.8536 116.735 76.3798 116.095 76.3798H108.187C107.558 76.3798 107.036 75.8635 107.036 75.2183V30.8232C107.036 30.1878 107.548 29.6617 108.187 29.6617H116.095ZM116.095 28.6689H108.187C107.017 28.6689 106.053 29.6319 106.053 30.8232V75.2183C106.053 76.3996 107.007 77.3725 108.187 77.3725H116.095C117.266 77.3725 118.23 76.4095 118.23 75.2183V30.8232C118.23 29.6418 117.276 28.6689 116.095 28.6689Z" fill="#FFE176"/>
<path d="M90.092 29.6227C91.5758 29.8075 93.0978 30.2472 94.6569 30.9515C97.5223 32.2386 99.8697 33.8713 101.691 35.8385C103.318 37.6017 104.622 39.6646 105.584 42.0149C105.782 42.4997 105.614 43.059 105.199 43.3773L98.6808 48.2971C98.4298 48.4859 98.1346 48.5491 97.8515 48.5139C97.5001 48.4701 97.1594 48.2576 96.9844 47.9057C96.1926 46.3568 95.2767 45.0124 94.2464 43.8738C92.9546 42.4426 91.5573 41.3883 90.0642 40.7122C89.5197 40.4643 89.0033 40.31 88.5348 40.2517C88.0662 40.1933 87.6051 40.2359 87.2015 40.3757C86.4138 40.6577 85.8449 41.177 85.5032 41.9447L85.4485 42.0679C85.2309 42.5509 85.134 43.019 85.1494 43.461C85.1647 43.903 85.3155 44.3719 85.6115 44.8689C85.9075 45.3659 86.3635 45.9328 86.9782 46.5795C87.594 47.2164 88.4053 47.9576 89.4021 48.8019C91.0757 50.1907 92.531 51.5822 93.7666 52.9864C94.9925 54.3894 95.9244 55.8459 96.5636 57.3458C97.2028 58.8458 97.4834 60.4412 97.4239 62.1442C97.3643 63.8473 96.8914 65.6889 96.0148 67.6702L95.9601 67.7935C94.9888 69.9831 93.807 71.7864 92.4061 73.1924C91.0053 74.5983 89.4405 75.6438 87.7432 76.3126C86.0363 76.9803 84.2189 77.2541 82.2801 77.1426C81.9751 77.1246 81.6615 77.0956 81.3588 77.0579C79.7188 76.8537 78.0442 76.365 76.3252 75.5908C73.328 74.2472 70.752 72.376 68.5876 69.9759C66.6151 67.7897 65.1141 65.2322 64.086 62.2934C63.9095 61.7913 64.1172 61.227 64.5584 60.9418L71.2813 56.6178C71.5177 56.4672 71.7921 56.4113 72.046 56.4429C72.4267 56.4903 72.7747 56.7237 72.9364 57.104C74.7755 61.3541 77.4714 64.2705 81.0229 65.8631C81.7188 66.1698 82.3486 66.3683 82.9246 66.4401C83.3834 66.4972 83.8116 66.4805 84.1994 66.3888C85.0775 66.178 85.7232 65.5983 86.1341 64.6692L86.1888 64.546C86.3821 64.0999 86.4839 63.6725 86.476 63.2514C86.468 62.8303 86.3257 62.3725 86.0333 61.8459C85.7495 61.3304 85.3143 60.7561 84.7265 60.1327C84.1484 59.5106 83.3567 58.7718 82.3489 57.9361C80.7974 56.6026 79.3923 55.2873 78.1458 53.9718C76.8994 52.6562 75.9224 51.2442 75.2331 49.748C74.5439 48.2518 74.1998 46.6085 74.1982 44.8378C74.1967 43.0672 74.6877 41.0778 75.6481 38.8968L75.7028 38.7736C76.5805 36.7823 77.6795 35.0887 78.9999 33.6927C80.3202 32.2968 81.8167 31.2428 83.4894 30.5309C85.1622 29.819 86.9368 29.4899 88.8242 29.5349C89.2488 29.5477 89.671 29.5803 90.1005 29.6338M90.221 28.6486C89.7622 28.5914 89.3009 28.554 88.8459 28.5473C86.8303 28.4963 84.8935 28.8553 83.1049 29.6228C81.3273 30.3817 79.7016 31.5195 78.29 33.0142C76.8905 34.4903 75.7184 36.2949 74.8006 38.3711L74.7458 38.4943C73.7307 40.7986 73.2119 42.9345 73.2064 44.8443C73.2008 46.7542 73.5855 48.5525 74.3383 50.1767C75.0753 51.7689 76.1098 53.2781 77.4357 54.6735C78.7004 56.0014 80.1398 57.3609 81.7096 58.7067C82.6893 59.5289 83.4554 60.2345 84.0065 60.8333C84.532 61.3989 84.9257 61.908 85.1679 62.3583C85.371 62.7237 85.4801 63.0473 85.4805 63.2875C85.487 63.5583 85.4118 63.8491 85.2842 64.1633L85.2295 64.2865C84.9414 64.9408 84.5406 65.301 83.9674 65.4496C83.6918 65.5153 83.3831 65.5269 83.0414 65.4844C82.5631 65.4248 82.0187 65.2569 81.4168 64.9919C78.1095 63.5098 75.5553 60.731 73.8337 56.7356C73.5313 56.0478 72.9145 55.5808 72.1628 55.4872C71.6747 55.4264 71.1649 55.543 70.7457 55.8108L64.0228 60.1349C63.194 60.6719 62.8272 61.7265 63.1496 62.6569C64.2133 65.7101 65.7962 68.4079 67.8482 70.674C70.1006 73.1651 72.8145 75.1235 75.9143 76.5199C77.709 77.3235 79.4983 77.8465 81.2262 78.0617C81.5581 78.103 81.8815 78.1333 82.2158 78.1549C84.2815 78.2821 86.2513 77.9773 88.0924 77.2664C89.9238 76.5542 91.6069 75.4335 93.099 73.9289C94.579 72.4427 95.8448 70.5198 96.8587 68.2255L96.9135 68.1022C97.8337 66.0063 98.3442 64.0193 98.4073 62.2067C98.4728 60.3744 98.1626 58.6153 97.4695 56.9885C96.7923 55.3938 95.8029 53.8402 94.5074 52.3585C93.2461 50.9211 91.7383 49.473 90.0281 48.0597C89.0569 47.2485 88.2725 46.5307 87.6835 45.9172C87.1202 45.3369 86.7082 44.8154 86.4526 44.3935C86.2471 44.0478 86.1368 43.734 86.1303 43.4631C86.1164 43.1713 86.1952 42.851 86.3471 42.4999L86.4018 42.3767C86.6341 41.8554 86.991 41.5298 87.5202 41.3356C87.7787 41.2478 88.069 41.2239 88.4107 41.2665C88.7816 41.3127 89.2015 41.445 89.6532 41.6413C91.0157 42.2511 92.3129 43.2329 93.5082 44.562C94.4773 45.633 95.3504 46.922 96.0933 48.3849C96.4139 49.005 97.016 49.4301 97.7189 49.5176C98.2656 49.5857 98.8082 49.4432 99.2555 49.1088L105.774 44.1891C106.56 43.5968 106.846 42.5522 106.48 41.6564C105.48 39.2113 104.102 37.0291 102.405 35.1872C100.505 33.1302 98.031 31.4017 95.052 30.0704C93.4173 29.3367 91.7903 28.864 90.2088 28.667L90.221 28.6486Z" fill="#FFE176"/>
<path d="M13.1317 76.8661C12.2268 76.8661 11.4891 76.1215 11.4891 75.2082V42.1601C11.4891 41.7928 11.194 41.495 10.8301 41.495H2.14482C1.2399 41.495 0.502197 40.7504 0.502197 39.8371V30.8131C0.502197 29.8998 1.2399 29.1553 2.14482 29.1553H31.9579C32.8629 29.1553 33.6006 29.8998 33.6006 30.8131V39.8371C33.6006 40.7504 32.8629 41.495 31.9579 41.495H23.2727C22.9088 41.495 22.6137 41.7928 22.6137 42.1601V75.2082C22.6137 76.1215 21.876 76.8661 20.971 76.8661H13.1219H13.1317Z" fill="black"/>
<path d="M38.6958 76.8661C37.7909 76.8661 37.0532 76.1215 37.0532 75.2082V30.8131C37.0532 29.8998 37.7909 29.1553 38.6958 29.1553H53.2336C55.5844 29.1553 57.7581 29.5325 59.686 30.287C61.6237 31.0415 63.3057 32.1633 64.6729 33.6127C66.0401 35.062 67.1024 36.8589 67.8401 38.9635C68.568 41.0582 68.9418 43.4507 68.9418 46.0715V46.2005C68.9418 49 68.5385 51.5117 67.7319 53.646C66.9254 55.7903 65.7942 57.6269 64.3581 59.0862C62.9221 60.5555 61.1811 61.6773 59.1844 62.4019C57.2073 63.1266 55.0336 63.5039 52.7122 63.5039H48.8368C48.4729 63.5039 48.1778 63.8017 48.1778 64.169V75.1983C48.1778 76.1116 47.4401 76.8562 46.5352 76.8562H38.686L38.6958 76.8661ZM48.8368 40.9688C48.4729 40.9688 48.1778 41.2666 48.1778 41.6339V51.7301C48.1778 52.0974 48.4729 52.3952 48.8368 52.3952H52.5057C54.1975 52.3952 55.4663 51.9088 56.4106 50.9061C57.345 49.9134 57.8172 48.5235 57.8172 46.7862V46.6473C57.8172 44.7809 57.345 43.3514 56.4204 42.3983C55.4958 41.4453 54.1581 40.9688 52.4565 40.9688H48.8467H48.8368Z" fill="black"/>
<path d="M81.2997 77.5504C79.6207 77.3413 77.8789 76.8343 76.1221 76.0454C73.0784 74.676 70.4195 72.7545 68.2208 70.3101C66.2129 68.0895 64.663 65.4458 63.6213 62.4553C63.3713 61.744 63.6592 60.9296 64.2941 60.5186L71.017 56.1945C71.34 55.9846 71.7266 55.9028 72.1073 55.9502C72.6833 56.0219 73.1645 56.3819 73.3886 56.9C75.1653 61.0123 77.8086 63.8721 81.2283 65.4083C81.8668 65.6979 82.46 65.8718 82.9872 65.9375C83.3874 65.9873 83.7558 65.9732 84.0924 65.8951C84.818 65.7154 85.3407 65.2503 85.6859 64.4531L85.7394 64.3397C85.9048 63.9602 85.9896 63.5907 85.9805 63.2595C85.9715 62.9282 85.8513 62.5332 85.6078 62.0927C85.3399 61.6093 84.9206 61.0669 84.378 60.4792C83.8183 59.8693 83.0253 59.1404 82.0456 58.3182C80.4843 56.9835 79.0536 55.635 77.7985 54.3084C76.5166 52.9584 75.5066 51.4922 74.7941 49.9431C74.0731 48.3829 73.7093 46.6572 73.7064 44.8163C73.7035 42.9755 74.2139 40.9085 75.2011 38.6708L75.2558 38.5476C76.1481 36.5182 77.2946 34.7605 78.649 33.3287C80.0144 31.8883 81.5768 30.7826 83.3007 30.057C85.0259 29.3216 86.8822 28.9727 88.838 29.0262C89.2723 29.0403 89.7152 29.0654 90.1643 29.1214C91.6969 29.3122 93.2763 29.769 94.8635 30.4868C97.7753 31.7997 100.196 33.4816 102.051 35.4931C103.714 37.2906 105.06 39.4187 106.036 41.8109C106.317 42.5061 106.092 43.2982 105.491 43.7536L98.9729 48.6733C98.6341 48.9312 98.2146 49.039 97.7948 48.9867C97.2579 48.9198 96.7926 48.5918 96.5539 48.112C95.7854 46.6159 94.8866 45.2936 93.8918 44.1895C92.6526 42.8148 91.2919 41.7851 89.8732 41.1483C89.3751 40.9262 88.9076 40.778 88.4878 40.7257C88.0681 40.6734 87.707 40.7085 87.3765 40.8174C86.7144 41.045 86.2552 41.4779 85.9682 42.1223L85.9135 42.2456C85.7336 42.6633 85.6464 43.0525 85.6506 43.4231C85.6561 43.7839 85.797 44.1716 86.0429 44.5923C86.3132 45.0561 86.752 45.6009 87.341 46.2144C87.9386 46.8389 88.7413 47.5691 89.7296 48.4023C91.413 49.7923 92.9036 51.2183 94.1466 52.6434C95.4079 54.0808 96.3826 55.5926 97.0267 57.1332C97.688 58.696 97.9871 60.3836 97.9203 62.1458C97.8547 63.8981 97.3722 65.8185 96.4689 67.8566L96.4142 67.9798C95.427 70.2175 94.1977 72.0849 92.7518 73.5353C91.3059 74.9856 89.6765 76.073 87.9171 76.7641C86.1577 77.4553 84.2488 77.7477 82.2527 77.6191C81.9379 77.5999 81.6145 77.5696 81.2924 77.5295L81.2997 77.5504Z" fill="black"/>
<path d="M108.188 29.1655H116.096C117.001 29.1655 117.739 29.9101 117.739 30.8234V75.2185C117.739 76.1318 117.001 76.8763 116.096 76.8763H108.188C107.283 76.8763 106.545 76.1318 106.545 75.2185V30.8234C106.545 29.9101 107.283 29.1655 108.188 29.1655Z" fill="black"/>
<path d="M109.164 20.8474C109.164 22.4969 107.842 23.8183 106.23 23.8183C104.618 23.8183 103.295 22.4969 103.295 20.8474C103.295 19.1979 104.618 17.8765 106.23 17.8765C107.842 17.8765 109.164 19.1979 109.164 20.8474Z" fill="black" stroke="black" stroke-width="2"/>
<path d="M109.164 2.48184C109.164 3.30896 108.502 3.96367 107.705 3.96367C106.908 3.96367 106.246 3.30896 106.246 2.48184C106.246 1.65471 106.908 1 107.705 1C108.502 1 109.164 1.65471 109.164 2.48184Z" fill="black" stroke="black" stroke-width="2"/>
<path d="M114.082 11.9128C114.082 13.014 113.2 13.891 112.131 13.891C111.063 13.891 110.18 13.014 110.18 11.9128C110.18 10.8115 111.063 9.93457 112.131 9.93457C113.2 9.93457 114.082 10.8115 114.082 11.9128Z" fill="black" stroke="black" stroke-width="2"/>
<path d="M119 17.3729C119 18.2001 118.338 18.8548 117.541 18.8548C116.744 18.8548 116.082 18.2001 116.082 17.3729C116.082 16.5458 116.744 15.8911 117.541 15.8911C118.338 15.8911 119 16.5458 119 17.3729Z" fill="black" stroke="black" stroke-width="2"/>
</svg>
