<svg width="120" height="82" viewBox="0 0 120 82" fill="none" xmlns="http://www.w3.org/2000/svg">
<path d="M10.6818 45.7044H1.99652C1.36701 45.7044 0.845703 45.1882 0.845703 44.5429V35.5189C0.845703 34.8836 1.35718 34.3574 1.99652 34.3574H31.8096C32.4391 34.3574 32.9605 34.8736 32.9605 35.5189V44.5429C32.9605 45.1782 32.449 45.7044 31.8096 45.7044H23.1244C22.4949 45.7044 21.9736 46.2206 21.9736 46.8659V79.914C21.9736 80.5493 21.4621 81.0755 20.8228 81.0755H12.9736C12.3441 81.0755 11.8228 80.5593 11.8228 79.914V46.8659C11.8228 46.2305 11.3113 45.7044 10.6719 45.7044H10.6818Z" fill="black"/>
<path d="M37.3966 35.5189C37.3966 34.8836 37.9081 34.3574 38.5474 34.3574H53.0852C55.3868 34.3574 57.4819 34.7247 59.3606 35.4594C61.2392 36.194 62.8425 37.2562 64.1704 38.6659C65.4983 40.0656 66.5114 41.793 67.2294 43.838C67.9474 45.8831 68.3015 48.1961 68.3015 50.7773V50.9063C68.3015 53.6661 67.9081 56.0884 67.1212 58.183C66.3343 60.2777 65.2425 62.0349 63.8556 63.4545C62.4589 64.8741 60.7966 65.9462 58.8589 66.661C56.9212 67.3758 54.8261 67.7332 52.554 67.7332H48.6786C48.0491 67.7332 47.5278 68.2494 47.5278 68.8947V79.9239C47.5278 80.5593 47.0163 81.0854 46.377 81.0854H38.5278C37.8983 81.0854 37.377 80.5692 37.377 79.9239V35.5288L37.3966 35.5189ZM52.3474 57.5775C54.1573 57.5775 55.5835 57.0315 56.6065 55.9295C57.6294 54.8375 58.1507 53.3484 58.1507 51.4722V51.3332C58.1507 49.3179 57.6393 47.7891 56.6065 46.7368C55.5737 45.6845 54.1376 45.1584 52.2884 45.1584H48.6786C48.0491 45.1584 47.5278 45.6746 47.5278 46.3199V56.416C47.5278 57.0513 48.0392 57.5775 48.6786 57.5775H52.3474Z" fill="black"/>
<path d="M78.9445 81.164C75.8068 80.2011 73.0232 78.6623 70.5838 76.5478C68.3609 74.6219 66.5609 72.2691 65.1838 69.4795C64.9478 69.003 65.0855 68.4173 65.4888 68.0798L71.6363 62.9573C72.1675 62.5105 72.9838 62.6297 73.3379 63.2352C75.6789 67.2161 78.7084 69.7873 82.4265 70.9289C83.7248 71.326 84.797 71.3657 85.6429 71.0481C86.4888 70.7304 87.0593 70.0752 87.3543 69.1023L87.3937 68.9732C87.5314 68.5067 87.5806 68.0699 87.5216 67.6529C87.4625 67.236 87.2658 66.7992 86.9117 66.3127C86.5675 65.8362 86.0658 65.32 85.4068 64.774C84.7576 64.228 83.8822 63.5926 82.7806 62.8878C81.0789 61.7561 79.5248 60.6243 78.1281 59.4728C76.7314 58.3212 75.5904 57.0406 74.7248 55.6408C73.8593 54.2411 73.3183 52.6527 73.1019 50.8955C72.8855 49.1384 73.1314 47.1033 73.8199 44.82L73.8593 44.691C74.4888 42.6062 75.374 40.7895 76.515 39.2408C77.656 37.6922 79.0134 36.4612 80.5871 35.5479C82.1609 34.6346 83.8822 34.0886 85.7609 33.8999C87.6396 33.7113 89.6265 33.9396 91.7314 34.5849C94.7314 35.5082 97.2593 36.8384 99.3052 38.5658C101.135 40.1145 102.679 42.0006 103.918 44.2144C104.174 44.6711 104.076 45.2469 103.702 45.6142L97.8297 51.3026C97.3281 51.789 96.5019 51.7096 96.0986 51.1338C95.1248 49.6943 94.0527 48.4733 92.892 47.4706C91.4363 46.2098 89.9216 45.3362 88.3576 44.8498C87.1871 44.4924 86.233 44.4924 85.4855 44.8696C84.7379 45.2469 84.2363 45.8326 83.9904 46.6367L83.9511 46.7658C83.7937 47.2721 83.7543 47.7486 83.8232 48.1854C83.892 48.6222 84.0986 49.0689 84.4527 49.5256C84.8068 49.9822 85.3281 50.4885 86.0166 51.0544C86.7052 51.6103 87.6002 52.2457 88.692 52.9604C90.5215 54.1319 92.1347 55.3331 93.5314 56.574C94.9183 57.8149 96.0199 59.1452 96.8363 60.5549C97.6527 61.9645 98.1248 63.5132 98.2724 65.2108C98.4199 66.9084 98.174 68.7945 97.5445 70.8694L97.5052 70.9984C96.8068 73.2916 95.8527 75.2275 94.633 76.796C93.4134 78.3645 91.9871 79.5955 90.3838 80.4691C88.7707 81.3427 87.0002 81.8391 85.0625 81.9681C83.1347 82.0972 81.0986 81.8291 78.9642 81.164H78.9445Z" fill="black"/>
<path d="M108.03 34.3672H115.938C116.567 34.3672 117.089 34.8834 117.089 35.5287V79.9238C117.089 80.5591 116.577 81.0853 115.938 81.0853H108.03C107.4 81.0853 106.879 80.569 106.879 79.9238V35.5287C106.879 34.8933 107.39 34.3672 108.03 34.3672Z" fill="black"/>
<path d="M31.9574 29.6607C32.5869 29.6607 33.1082 30.1769 33.1082 30.8222V39.8462C33.1082 40.4815 32.5967 41.0077 31.9574 41.0077H23.2721C22.6426 41.0077 22.1213 41.5239 22.1213 42.1692V75.2173C22.1213 75.8526 21.6098 76.3788 20.9705 76.3788H13.1213C12.4918 76.3788 11.9705 75.8626 11.9705 75.2173V42.1692C11.9705 41.5338 11.459 41.0077 10.8197 41.0077H2.13443C1.50492 41.0077 0.983606 40.4914 0.983606 39.8462V30.8222C0.983606 30.1869 1.49508 29.6607 2.13443 29.6607H31.9475M31.9475 28.668H2.13443C0.963934 28.668 0 29.6309 0 30.8222V39.8462C0 41.0275 0.954098 42.0004 2.13443 42.0004H10.8197C10.9082 42.0004 10.9869 42.0699 10.9869 42.1692V75.2173C10.9869 76.3986 11.941 77.3715 13.1213 77.3715H20.9705C22.141 77.3715 23.1049 76.4086 23.1049 75.2173V42.1692C23.1049 42.0798 23.1738 42.0004 23.2721 42.0004H31.9574C33.1279 42.0004 34.0918 41.0374 34.0918 39.8462V30.8222C34.0918 29.6409 33.1377 28.668 31.9574 28.668H31.9475Z" fill="#FFE176"/>
<path d="M53.2426 29.6605C55.5442 29.6605 57.6393 30.0279 59.518 30.7625C61.3967 31.4971 63 32.5593 64.3278 33.969C65.6557 35.3688 66.6688 37.0961 67.3868 39.1412C68.1049 41.1862 68.459 43.4993 68.459 46.0804V46.2094C68.459 48.9692 68.0655 51.3915 67.2786 53.4862C66.4918 55.5808 65.4 57.338 64.0131 58.7576C62.6164 60.1772 60.9541 61.2494 59.0164 61.9641C57.0786 62.6789 54.9836 63.0363 52.7114 63.0363H48.836C48.2065 63.0363 47.6852 63.5525 47.6852 64.1978V75.2271C47.6852 75.8624 47.1737 76.3886 46.5344 76.3886H38.6852C38.0557 76.3886 37.5344 75.8723 37.5344 75.2271V30.832C37.5344 30.1966 38.0459 29.6705 38.6852 29.6705H53.2229M48.8262 52.8905H52.495C54.3049 52.8905 55.7311 52.3445 56.7541 51.2426C57.777 50.1506 58.2983 48.6615 58.2983 46.7852V46.6462C58.2983 44.631 57.7868 43.1022 56.7541 42.0499C55.7213 40.9976 54.2852 40.4714 52.436 40.4714H48.8262C48.1967 40.4714 47.6754 40.9876 47.6754 41.6329V51.729C47.6754 52.3644 48.1868 52.8905 48.8262 52.8905ZM53.2229 28.6777H38.6852C37.5147 28.6777 36.5508 29.6407 36.5508 30.832V75.2271C36.5508 76.4084 37.5049 77.3813 38.6852 77.3813H46.5344C47.7049 77.3813 48.6688 76.4183 48.6688 75.2271V64.1978C48.6688 64.1084 48.7377 64.029 48.836 64.029H52.7114C55.0819 64.029 57.3147 63.6518 59.3508 62.8973C61.4164 62.1428 63.2164 60.9813 64.7114 59.4624C66.1967 57.9435 67.3672 56.0574 68.2032 53.8436C69.0295 51.6496 69.4426 49.0884 69.4426 46.2194V46.0903C69.4426 43.4099 69.059 40.9678 68.3114 38.8235C67.5541 36.6494 66.4524 34.793 65.036 33.2939C63.6196 31.7949 61.8786 30.6334 59.8721 29.8492C57.8852 29.0748 55.6524 28.6777 53.2426 28.6777H53.2229ZM48.8262 51.8978C48.7377 51.8978 48.659 51.8283 48.659 51.729V41.6329C48.659 41.5436 48.7278 41.4642 48.8262 41.4642H52.436C54.0196 41.4642 55.2098 41.8811 56.0459 42.7448C56.8819 43.5985 57.3049 44.9089 57.3049 46.6462V46.7852C57.3049 48.4133 56.8918 49.6542 56.036 50.5675C55.1901 51.461 54.0295 51.8978 52.4852 51.8978H48.8164H48.8262Z" fill="#FFE176"/>
<path d="M116.095 29.6607C116.725 29.6607 117.246 30.1769 117.246 30.8222V75.2173C117.246 75.8526 116.735 76.3788 116.095 76.3788H108.187C107.558 76.3788 107.036 75.8626 107.036 75.2173V30.8222C107.036 30.1869 107.548 29.6607 108.187 29.6607H116.095ZM116.095 28.668H108.187C107.017 28.668 106.053 29.6309 106.053 30.8222V75.2173C106.053 76.3986 107.007 77.3715 108.187 77.3715H116.095C117.266 77.3715 118.23 76.4086 118.23 75.2173V30.8222C118.23 29.6409 117.276 28.668 116.095 28.668Z" fill="#FFE176"/>
<path d="M90.092 29.6223C91.5758 29.8071 93.0978 30.2467 94.6569 30.951C97.5223 32.2381 99.8697 33.8708 101.691 35.838C103.318 37.6012 104.622 39.6641 105.584 42.0144C105.782 42.4992 105.614 43.0585 105.199 43.3769L98.6808 48.2966C98.4298 48.4854 98.1346 48.5486 97.8515 48.5134C97.5001 48.4696 97.1594 48.2571 96.9844 47.9053C96.1926 46.3563 95.2767 45.0119 94.2464 43.8733C92.9546 42.4421 91.5573 41.3878 90.0642 40.7117C89.5197 40.4639 89.0033 40.3095 88.5348 40.2512C88.0662 40.1928 87.6051 40.2354 87.2015 40.3752C86.4138 40.6572 85.8449 41.1765 85.5032 41.9442L85.4485 42.0674C85.2309 42.5504 85.134 43.0185 85.1494 43.4605C85.1647 43.9025 85.3155 44.3714 85.6115 44.8684C85.9075 45.3654 86.3635 45.9323 86.9782 46.579C87.594 47.2159 88.4053 47.9571 89.4021 48.8014C91.0757 50.1902 92.531 51.5817 93.7666 52.9859C94.9925 54.389 95.9244 55.8454 96.5636 57.3454C97.2028 58.8453 97.4834 60.4407 97.4239 62.1437C97.3643 63.8468 96.8914 65.6884 96.0148 67.6698L95.9601 67.793C94.9888 69.9826 93.807 71.7859 92.4061 73.1919C91.0053 74.5979 89.4405 75.6433 87.7432 76.3121C86.0363 76.9798 84.2189 77.2536 82.2801 77.1421C81.9751 77.1242 81.6615 77.0951 81.3588 77.0574C79.7188 76.8532 78.0442 76.3645 76.3252 75.5903C73.328 74.2468 70.752 72.3755 68.5876 69.9754C66.6151 67.7892 65.1141 65.2317 64.086 62.2929C63.9095 61.7908 64.1172 61.2265 64.5584 60.9413L71.2813 56.6173C71.5177 56.4667 71.7921 56.4108 72.046 56.4424C72.4267 56.4898 72.7747 56.7232 72.9364 57.1035C74.7755 61.3536 77.4714 64.27 81.0229 65.8626C81.7188 66.1694 82.3486 66.3678 82.9246 66.4396C83.3834 66.4967 83.8116 66.48 84.1994 66.3883C85.0775 66.1776 85.7232 65.5978 86.1341 64.6687L86.1888 64.5455C86.3821 64.0994 86.4839 63.672 86.476 63.2509C86.468 62.8298 86.3257 62.372 86.0333 61.8454C85.7495 61.3299 85.3143 60.7556 84.7265 60.1323C84.1484 59.5101 83.3567 58.7713 82.3489 57.9356C80.7974 56.6021 79.3923 55.2868 78.1458 53.9713C76.8994 52.6557 75.9224 51.2437 75.2331 49.7475C74.5439 48.2513 74.1998 46.608 74.1982 44.8373C74.1967 43.0667 74.6877 41.0773 75.6481 38.8963L75.7028 38.7731C76.5805 36.7818 77.6795 35.0882 78.9999 33.6923C80.3202 32.2963 81.8167 31.2423 83.4894 30.5304C85.1622 29.8185 86.9368 29.4894 88.8242 29.5344C89.2488 29.5473 89.671 29.5798 90.1005 29.6333M90.221 28.6481C89.7622 28.5909 89.3009 28.5535 88.8459 28.5468C86.8303 28.4959 84.8935 28.8548 83.1049 29.6223C81.3273 30.3812 79.7016 31.5191 78.29 33.0137C76.8905 34.4898 75.7184 36.2944 74.8006 38.3706L74.7458 38.4939C73.7307 40.7981 73.2119 42.934 73.2064 44.8439C73.2008 46.7537 73.5855 48.552 74.3383 50.1762C75.0753 51.7684 76.1098 53.2776 77.4357 54.673C78.7004 56.0009 80.1398 57.3604 81.7096 58.7062C82.6893 59.5284 83.4554 60.234 84.0065 60.8328C84.532 61.3984 84.9257 61.9075 85.1679 62.3578C85.371 62.7232 85.4801 63.0469 85.4805 63.287C85.487 63.5579 85.4118 63.8486 85.2842 64.1628L85.2295 64.286C84.9414 64.9403 84.5406 65.3005 83.9674 65.4491C83.6918 65.5148 83.3831 65.5264 83.0414 65.4839C82.5631 65.4243 82.0187 65.2565 81.4168 64.9915C78.1095 63.5093 75.5553 60.7305 73.8337 56.7351C73.5313 56.0473 72.9145 55.5803 72.1628 55.4867C71.6747 55.4259 71.1649 55.5425 70.7457 55.8104L64.0228 60.1344C63.194 60.6714 62.8272 61.726 63.1496 62.6564C64.2133 65.7096 65.7962 68.4074 67.8482 70.6735C70.1006 73.1646 72.8145 75.123 75.9143 76.5194C77.709 77.323 79.4983 77.846 81.2262 78.0612C81.5581 78.1025 81.8815 78.1328 82.2158 78.1544C84.2815 78.2816 86.2513 77.9768 88.0924 77.2659C89.9238 76.5537 91.6069 75.433 93.099 73.9284C94.579 72.4422 95.8448 70.5193 96.8587 68.225L96.9135 68.1018C97.8337 66.0058 98.3442 64.0188 98.4073 62.2062C98.4728 60.3739 98.1626 58.6148 97.4695 56.9881C96.7923 55.3933 95.8029 53.8397 94.5074 52.358C93.2461 50.9206 91.7383 49.4725 90.0281 48.0592C89.0569 47.248 88.2725 46.5302 87.6835 45.9167C87.1202 45.3364 86.7082 44.815 86.4526 44.393C86.2471 44.0473 86.1368 43.7335 86.1303 43.4626C86.1164 43.1708 86.1952 42.8506 86.3471 42.4994L86.4018 42.3762C86.6341 41.8549 86.991 41.5293 87.5202 41.3351C87.7787 41.2473 88.069 41.2234 88.4107 41.266C88.7816 41.3122 89.2015 41.4445 89.6532 41.6408C91.0157 42.2506 92.3129 43.2324 93.5082 44.5616C94.4773 45.6325 95.3504 46.9216 96.0933 48.3844C96.4139 49.0045 97.016 49.4296 97.7189 49.5171C98.2656 49.5852 98.8082 49.4428 99.2555 49.1083L105.774 44.1886C106.56 43.5963 106.846 42.5517 106.48 41.6559C105.48 39.2108 104.102 37.0286 102.405 35.1868C100.505 33.1298 98.031 31.4012 95.052 30.07C93.4173 29.3362 91.7903 28.8635 90.2088 28.6666L90.221 28.6481Z" fill="#FFE176"/>
<path d="M13.1315 76.8651C12.2265 76.8651 11.4888 76.1206 11.4888 75.2072V42.1591C11.4888 41.7918 11.1938 41.494 10.8298 41.494H2.14458C1.23966 41.494 0.501953 40.7494 0.501953 39.8361V30.8122C0.501953 29.8988 1.23966 29.1543 2.14458 29.1543H31.9577C32.8626 29.1543 33.6003 29.8988 33.6003 30.8122V39.8361C33.6003 40.7494 32.8626 41.494 31.9577 41.494H23.2724C22.9085 41.494 22.6134 41.7918 22.6134 42.1591V75.2072C22.6134 76.1206 21.8757 76.8651 20.9708 76.8651H13.1216H13.1315Z" fill="black"/>
<path d="M38.6954 76.8651C37.7904 76.8651 37.0527 76.1206 37.0527 75.2072V30.8122C37.0527 29.8988 37.7904 29.1543 38.6954 29.1543H53.2331C55.5839 29.1543 57.7577 29.5315 59.6855 30.286C61.6232 31.0405 63.3052 32.1623 64.6724 33.6117C66.0396 35.0611 67.1019 36.8579 67.8396 38.9625C68.5675 41.0572 68.9413 43.4497 68.9413 46.0705V46.1995C68.9413 48.9991 68.538 51.5107 67.7314 53.6451C66.9249 55.7894 65.7937 57.6259 64.3577 59.0852C62.9216 60.5545 61.1806 61.6763 59.1839 62.401C57.2068 63.1257 55.0331 63.5029 52.7118 63.5029H48.8363C48.4724 63.5029 48.1773 63.8007 48.1773 64.168V75.1973C48.1773 76.1106 47.4396 76.8552 46.5347 76.8552H38.6855L38.6954 76.8651ZM48.8363 40.9678C48.4724 40.9678 48.1773 41.2657 48.1773 41.633V51.7291C48.1773 52.0964 48.4724 52.3942 48.8363 52.3942H52.5052C54.197 52.3942 55.4659 51.9078 56.4101 50.9051C57.3445 49.9124 57.8167 48.5225 57.8167 46.7853V46.6463C57.8167 44.7799 57.3445 43.3504 56.4199 42.3974C55.4954 41.4443 54.1577 40.9678 52.456 40.9678H48.8462H48.8363Z" fill="black"/>
<path d="M81.2992 77.5494C79.6202 77.3403 77.8784 76.8333 76.1216 76.0444C73.0779 74.6751 70.419 72.7535 68.2203 70.3091C66.2124 68.0885 64.6625 65.4448 63.6208 62.4543C63.3708 61.743 63.6587 60.9286 64.2937 60.5176L71.0165 56.1935C71.3395 55.9837 71.7261 55.9018 72.1068 55.9492C72.6828 56.0209 73.164 56.3809 73.3881 56.899C75.1648 61.0113 77.8081 63.8712 81.2278 65.4073C81.8663 65.6969 82.4595 65.8708 82.9867 65.9365C83.3869 65.9863 83.7553 65.9722 84.0919 65.8941C84.8176 65.7144 85.3402 65.2493 85.6855 64.4521L85.739 64.3388C85.9043 63.9592 85.9891 63.5897 85.9801 63.2585C85.971 62.9273 85.8508 62.5322 85.6073 62.0918C85.3394 61.6083 84.9201 61.0659 84.3775 60.4782C83.8178 59.8684 83.0248 59.1394 82.0451 58.3172C80.4838 56.9825 79.0531 55.634 77.7981 54.3074C76.5162 52.9574 75.5061 51.4913 74.7937 49.9421C74.0726 48.382 73.7088 46.6562 73.7059 44.8154C73.703 42.9745 74.2134 40.9075 75.2006 38.6698L75.2553 38.5466C76.1476 36.5172 77.2941 34.7595 78.6485 33.3277C80.0139 31.8874 81.5763 30.7816 83.3002 30.0561C85.0254 29.3207 86.8817 28.9717 88.8375 29.0252C89.2718 29.0393 89.7147 29.0645 90.1638 29.1204C91.6964 29.3113 93.2758 29.768 94.863 30.4858C97.7748 31.7987 100.195 33.4806 102.051 35.4921C103.714 37.2897 105.059 39.4177 106.035 41.8099C106.317 42.5052 106.091 43.2973 105.491 43.7526L98.9724 48.6723C98.6336 48.9302 98.2141 49.038 97.7943 48.9857C97.2574 48.9188 96.7921 48.5908 96.5534 48.111C95.7849 46.6149 94.8861 45.2926 93.8913 44.1885C92.6521 42.8138 91.2914 41.7841 89.8727 41.1473C89.3746 40.9252 88.9071 40.777 88.4873 40.7247C88.0676 40.6724 87.7065 40.7075 87.376 40.8164C86.7139 41.044 86.2547 41.4769 85.9677 42.1214L85.913 42.2446C85.7331 42.6623 85.6459 43.0515 85.6501 43.4222C85.6556 43.7829 85.7965 44.1706 86.0424 44.5913C86.3127 45.0551 86.7516 45.5999 87.3406 46.2134C87.9381 46.838 88.7408 47.5681 89.7291 48.4014C91.4125 49.7913 92.9031 51.2173 94.1461 52.6424C95.4074 54.0799 96.3821 55.5916 97.0263 57.1322C97.6875 58.695 97.9866 60.3827 97.9198 62.1448C97.8542 63.8971 97.3717 65.8175 96.4684 67.8556L96.4137 67.9788C95.4265 70.2165 94.1972 72.0839 92.7513 73.5343C91.3055 74.9846 89.676 76.072 87.9166 76.7632C86.1572 77.4543 84.2483 77.7467 82.2522 77.6181C81.9374 77.5989 81.614 77.5686 81.2919 77.5285L81.2992 77.5494Z" fill="black"/>
<path d="M108.188 29.1641H116.096C117.001 29.1641 117.738 29.9086 117.738 30.8219V75.217C117.738 76.1303 117.001 76.8749 116.096 76.8749H108.188C107.283 76.8749 106.545 76.1303 106.545 75.217V30.8219C106.545 29.9086 107.283 29.1641 108.188 29.1641Z" fill="black"/>
<path d="M109.164 20.8479C109.164 22.4974 107.841 23.8188 106.229 23.8188C104.617 23.8188 103.295 22.4974 103.295 20.8479C103.295 19.1984 104.617 17.877 106.229 17.877C107.841 17.877 109.164 19.1984 109.164 20.8479Z" fill="black" stroke="black" stroke-width="2"/>
<path d="M109.164 2.48184C109.164 3.30896 108.502 3.96367 107.705 3.96367C106.908 3.96367 106.246 3.30896 106.246 2.48184C106.246 1.65471 106.908 1 107.705 1C108.502 1 109.164 1.65471 109.164 2.48184Z" fill="black" stroke="black" stroke-width="2"/>
<path d="M114.081 11.9138C114.081 13.015 113.199 13.892 112.131 13.892C111.062 13.892 110.18 13.015 110.18 11.9138C110.18 10.8125 111.062 9.93555 112.131 9.93555C113.199 9.93555 114.081 10.8125 114.081 11.9138Z" fill="black" stroke="black" stroke-width="2"/>
<path d="M119 17.3725C119 18.1996 118.338 18.8543 117.541 18.8543C116.744 18.8543 116.082 18.1996 116.082 17.3725C116.082 16.5453 116.744 15.8906 117.541 15.8906C118.338 15.8906 119 16.5453 119 17.3725Z" fill="black" stroke="black" stroke-width="2"/>
</svg>
